<?xml version="1.0" encoding="UTF-8" standalone="no"?>
<!DOCTYPE svg PUBLIC "-//W3C//DTD SVG 1.1//EN" "http://www.w3.org/Graphics/SVG/1.1/DTD/svg11.dtd">
<svg viewBox="0 0 500 500" preserveAspectRatio="xMidYMid meet" xmlns="http://www.w3.org/2000/svg" xmlns:xlink="http://www.w3.org/1999/xlink">
	<title>Inverse proportionality function graph</title>
	<desc>Sample hyperbola 2D graph SVG - function y=1/x.</desc>
	<defs>
		<g id="parabola_curve">
			<path d="M2,5 Q 3.919,128.1 3.839,145.8 5.603,196.47 7.368,195.71 10.76,216.9 14.14,221.71 20.64,232.73 27.14,235.26 39.62,241.016 52.1,242.322 76.05,245.319 250,248" stroke="coral" stroke-width="2" fill="transparent"/>
		</g>
	</defs>
	<line x1="250" y1="0" x2="250" y2="500"
stroke="black" stroke-width="2" stroke-linecap="round"/>
	<line x1="0" y1="250" x2="500" y2="250"
stroke="black" stroke-width="2" stroke-linecap="round"/>
	<line x1="250" y1="0" x2="260" y2="20"
stroke="black" stroke-width="2" stroke-linecap="round"/>
	<line x1="250" y1="0" x2="240" y2="20"
stroke="black" stroke-width="2" stroke-linecap="round"/>
	<line x1="500" y1="250" x2="480" y2="260"
stroke="black" stroke-width="2" stroke-linecap="round"/>
	<line x1="500" y1="250" x2="480" y2="240"
stroke="black" stroke-width="2" stroke-linecap="round"/>
	<text x="235" y="270" font-family="sans-serif" font-size="25" fill="black">0</text>
	<text x="275" y="275" font-family="sans-serif" font-size="25" fill="black">1</text>
	<line x1="245" y1="220" x2="255" y2="220"
stroke="black" stroke-width="2" stroke-linecap="round"/>
	<line x1="280" y1="255" x2="280" y2="245"
stroke="black" stroke-width="2" stroke-linecap="round"/>
	<text x="230" y="230" font-family="sans-serif" font-size="25" fill="black">1</text>
	<text x="480" y="230" font-family="sans-serif" font-size="25" fill="black" style="font-style: italic;">x</text>
	<text x="220" y="20" font-family="sans-serif" font-size="25" fill="black" style="font-style: italic;">y</text>

	<use xlink:href="#parabola_curve" transform="rotate(0,125,125)" x="250" y="0"/>
	<use xlink:href="#parabola_curve" transform="rotate(180,125,375)" x="0" y="251"/>
	<text x="320" y="160" font-family="fantasy" font-size="25" fill="black" style="font-style: italic;">y=1/x</text>
</svg>
