<?xml version="1.0" encoding="UTF-8" standalone="no"?>
<!DOCTYPE svg PUBLIC "-//W3C//DTD SVG 1.1//EN" "http://www.w3.org/Graphics/SVG/1.1/DTD/svg11.dtd">
<svg xmlns="http://www.w3.org/2000/svg" viewBox="0 0 500 500" preserveAspectRatio="xMidYMid meet">
	<title>Simple linear function graph</title>
	<desc>Sample simple linear function y = x 2D graph SVG.</desc>
	<line x1="250" y1="0" x2="250" y2="500"
stroke="black" stroke-width="2" stroke-linecap="round"/>
	<line x1="0" y1="250" x2="500" y2="250"
stroke="black" stroke-width="2" stroke-linecap="round"/>
	<line x1="250" y1="0" x2="260" y2="20"
stroke="black" stroke-width="2" stroke-linecap="round"/>
	<line x1="250" y1="0" x2="240" y2="20"
stroke="black" stroke-width="2" stroke-linecap="round"/>
	<line x1="500" y1="250" x2="480" y2="260"
stroke="black" stroke-width="2" stroke-linecap="round"/>
	<line x1="500" y1="250" x2="480" y2="240"
stroke="black" stroke-width="2" stroke-linecap="round"/>
	<text x="235" y="270" font-family="sans-serif" font-size="25" fill="black">0</text>
	<text x="275" y="275" font-family="sans-serif" font-size="25" fill="black">1</text>
	<line x1="245" y1="220" x2="255" y2="220"
stroke="black" stroke-width="2" stroke-linecap="round"/>
	<line x1="280" y1="255" x2="280" y2="245"
stroke="black" stroke-width="2" stroke-linecap="round"/>
	<text x="230" y="230" font-family="sans-serif" font-size="25" fill="black">1</text>
	<text x="480" y="230" font-family="sans-serif" font-size="25" fill="black" style="font-style: italic;">x</text>
	<text x="220" y="20" font-family="sans-serif" font-size="25" fill="black" style="font-style: italic;">y</text>


	<path stroke="coral" fill="none" d="M 250 250 q -70 0 -160 -640" />
	<path stroke="coral" fill="none" d="M 250 250 q  70 0  160 -640" />
	<!--<line x1="280" y1="0" x2="280" y2="500" stroke="black" />
	<line x1="0" y1="220" x2="500" y2="220" stroke="black" />-->
	<text x="320" y="160" font-family="fantasy" font-size="25" fill="black" style="font-style: italic;">y=x²</text>
</svg>
