<?xml version="1.0" encoding="UTF-8" standalone="no"?>
<!DOCTYPE svg PUBLIC "-//W3C//DTD SVG 1.1//EN" "http://www.w3.org/Graphics/SVG/1.1/DTD/svg11.dtd">
<svg viewBox="0 0 1300 1100" preserveAspectRatio="xMidYMid meet"  xmlns="http://www.w3.org/2000/svg" xmlns:xlink="http://www.w3.org/1999/xlink">
	<defs>
		<g id="CoordinateAxis">
			<!--<line x1="250" y1="0" x2="250" y2="500" stroke="black" stroke-width="2" stroke-linecap="round"/>-->
			<line x1="0" y1="250" x2="500" y2="250" stroke="black" stroke-width="2" stroke-linecap="round"/>
			<!--<line x1="250" y1="0" x2="260" y2="20" stroke="black" stroke-width="2" stroke-linecap="round"/>
			<line x1="250" y1="0" x2="240" y2="20" stroke="black" stroke-width="2" stroke-linecap="round"/>-->
			<line x1="500" y1="250" x2="480" y2="260" stroke="black" stroke-width="2" stroke-linecap="round"/>
			<line x1="500" y1="250" x2="480" y2="240" stroke="black" stroke-width="2" stroke-linecap="round"/>
			<!--<text x="235" y="270" font-family="sans-serif" font-size="25" fill="black">0</text>
			<text x="275" y="275" font-family="sans-serif" font-size="25" fill="black">1</text>
			<text x="204" y="275" font-family="sans-serif" font-size="25" fill="black">-1</text>
			<line x1="245" y1="221" x2="255" y2="221" stroke="black" stroke-width="2" stroke-linecap="round"/>
			<line x1="281" y1="255" x2="281" y2="245" stroke="black" stroke-width="2" stroke-linecap="round"/>
			<line x1="219" y1="255" x2="219" y2="245" stroke="black" stroke-width="2" stroke-linecap="round"/>-->
			<text x="480" y="230" font-family="sans-serif" font-size="25" fill="black" style="font-style: italic;">x</text>
			<!--<text x="220" y="20" font-family="sans-serif" font-size="25" fill="black" style="font-style: italic;">y</text>-->

			<!--<line x1="0" y1="126" x2="500" y2="126" stroke="black" stroke-width="1" stroke-linecap="round"/>
			<line x1="374" y1="0" x2="374" y2="500" stroke="black" stroke-width="1" stroke-linecap="round"/>

			<line x1="0" y1="219" x2="500" y2="219" stroke="black" stroke-width="1" stroke-linecap="round"/>
			<line x1="312" y1="0" x2="312" y2="500" stroke="black" stroke-width="1" stroke-linecap="round"/>-->
		</g>
	</defs>
	<defs>
		<g id="up_parabola">
			<path stroke="coral" stroke-width="8" fill="none" d="M 250 250 q -60 0 -126 -126" />
			<path stroke="coral" stroke-width="8" fill="none" d="M 250 250 q  60 0  126 -126" />
			<!--<text x="320" y="160" font-family="fantasy" font-size="25" fill="black" style="font-style: italic;">y=x²</text>-->
		</g>
	</defs>
	<use x="400" y="50" xlink:href="#up_parabola"/>
	<use x="400" y="0" xlink:href="#CoordinateAxis"/>
	<rect x="572" y="240" width="15" height="15" fill="burlywood" stroke="antiquewhite" stroke-width="3" transform="rotate(45 572 240)" />
	<rect x="730" y="240" width="15" height="15" fill="burlywood" stroke="antiquewhite" stroke-width="3" transform="rotate(45 730 240)" />
	<rect x="620" y="280" width="15" height="15" fill="burlywood" stroke="antiquewhite" stroke-width="3" transform="rotate(45 620 280)" />
	<line x1="620" y1="280" x2="620" y2="250" stroke="black" />
</svg>
