<?xml version="1.0" encoding="UTF-8" standalone="no"?>
<!DOCTYPE svg PUBLIC "-//W3C//DTD SVG 1.1//EN" "http://www.w3.org/Graphics/SVG/1.1/DTD/svg11.dtd">
<svg viewBox="0 0 1880 1170" preserveAspectRatio="xMidYMid meet"  xmlns="http://www.w3.org/2000/svg" xmlns:xlink="http://www.w3.org/1999/xlink"> <!--31 user points - unity-->
	<title>Quadratic function graph</title>
	<desc>Quadratic function graph.</desc>
	<defs>
		<g id="CoordinateAxis">
			<!--<line x1="250" y1="0" x2="250" y2="500" stroke="black" stroke-width="2" stroke-linecap="round"/>-->
			<line x1="0" y1="250" x2="500" y2="250" stroke="black" stroke-width="2" stroke-linecap="round"/>
			<!--<line x1="250" y1="0" x2="260" y2="20" stroke="black" stroke-width="2" stroke-linecap="round"/>
			<line x1="250" y1="0" x2="240" y2="20" stroke="black" stroke-width="2" stroke-linecap="round"/>-->
			<line x1="500" y1="250" x2="480" y2="260" stroke="black" stroke-width="2" stroke-linecap="round"/>
			<line x1="500" y1="250" x2="480" y2="240" stroke="black" stroke-width="2" stroke-linecap="round"/>
			<!--<text x="235" y="270" font-family="sans-serif" font-size="25" fill="black">0</text>
			<text x="275" y="275" font-family="sans-serif" font-size="25" fill="black">1</text>
			<text x="204" y="275" font-family="sans-serif" font-size="25" fill="black">-1</text>
			<line x1="245" y1="221" x2="255" y2="221" stroke="black" stroke-width="2" stroke-linecap="round"/>
			<line x1="281" y1="255" x2="281" y2="245" stroke="black" stroke-width="2" stroke-linecap="round"/>
			<line x1="219" y1="255" x2="219" y2="245" stroke="black" stroke-width="2" stroke-linecap="round"/>-->
			<text x="480" y="230" font-family="sans-serif" font-size="25" fill="black" style="font-style: italic;">x</text>
			<!--<text x="220" y="20" font-family="sans-serif" font-size="25" fill="black" style="font-style: italic;">y</text>-->

			<!--<line x1="0" y1="219" x2="500" y2="219" stroke="black" stroke-width="1" stroke-linecap="round"/>
			<line x1="281" y1="0" x2="281" y2="500" stroke="black" stroke-width="1" stroke-linecap="round"/>

			<line x1="0" y1="242.5" x2="500" y2="242.5" stroke="black" stroke-width="1" stroke-linecap="round"/>
			<line x1="265.5" y1="0" x2="265.5" y2="500" stroke="black" stroke-width="1" stroke-linecap="round"/>

			<line x1="0" y1="56.25" x2="500" y2="56.25" stroke="black" stroke-width="1" stroke-linecap="round"/>
			<line x1="327.5" y1="0" x2="327.5" y2="500" stroke="black" stroke-width="1" stroke-linecap="round"/>

			<line x1="0" y1="197.61" x2="500" y2="197.61" stroke="black" stroke-width="1" stroke-linecap="round"/>
			<line x1="290.3" y1="0" x2="290.3" y2="500" stroke="black" stroke-width="1" stroke-linecap="round"/>-->
		</g>
	</defs>
	<defs>
		<g id="up_parabola">
			<path stroke="coral" stroke-width="8" fill="none" d="M 250 250 q -40 0 -70 -180" />
			<path stroke="coral" stroke-width="8" fill="none" d="M 250 250 q  40 0  70 -180" />
			<!--<text x="320" y="160" font-family="fantasy" font-size="25" fill="black" style="font-style: italic;">y=x²</text>-->
		</g>
	</defs>
	<defs>
		<g id="down_parabola">
			<path stroke="coral" stroke-width="8" fill="none" d="M 250 250 q -40 0 -70 180" />
			<path stroke="coral" stroke-width="8" fill="none" d="M 250 250 q  40 0  70 180" />
			<!--<text x="320" y="160" font-family="fantasy" font-size="25" fill="black" style="font-style: italic;">y=x²</text>-->
		</g>
	</defs>
	<use x="320" y="150" xlink:href="#CoordinateAxis" />
	<use x="840" y="150" xlink:href="#CoordinateAxis" />
	<use x="1360" y="150" xlink:href="#CoordinateAxis" />
	<use x="320" y="670" xlink:href="#CoordinateAxis" />
	<use x="840" y="670" xlink:href="#CoordinateAxis" />
	<use x="1360" y="670" xlink:href="#CoordinateAxis" />

	<use x="320" y="250" xlink:href="#up_parabola" />
	<use x="840" y="150" xlink:href="#up_parabola" />
	<use x="1360" y="100" xlink:href="#up_parabola" />

	<use x="320" y="570" xlink:href="#down_parabola" />
	<use x="840" y="670" xlink:href="#down_parabola" />
	<use x="1360" y="720" xlink:href="#down_parabola" />

	<line x1="0" y1="0" x2="0" y2="1170" stroke="black" stroke-width="2" />
	<line x1="1880" y1="0" x2="1880" y2="1170" stroke="black" stroke-width="2" />
	<line x1="0" y1="0" x2="1880" y2="0" stroke="black" stroke-width="2" />
	<line x1="0" y1="1170" x2="1880" y2="1170" stroke="black" stroke-width="2" />

	<line x1="320" y1="150" x2="1880" y2="150" stroke="black" />

	<line x1="310" y1="0" x2="310" y2="1170" stroke="black" />
	<line x1="830" y1="0" x2="830" y2="1170" stroke="black" />
	<line x1="1350" y1="0" x2="1350" y2="1170" stroke="black" />
	<line x1="320" y1="660" x2="1880" y2="660" stroke="black" />

	<text x="110" y="410" font-family="sans-serif" font-size="40" fill="black">a &gt; 0</text>
	<text x="110" y="930" font-family="sans-serif" font-size="40" fill="black">a &lt; 0</text>

	<text x="520" y="72" font-family="sans-serif" font-size="40" fill="black">D &lt; 0</text>
	<text x="1040" y="72" font-family="sans-serif" font-size="40" fill="black">D = 0</text>
	<text x="1560" y="72" font-family="sans-serif" font-size="40" fill="black">D &gt; 0</text>
</svg>
