<?xml version="1.0" standalone="no"?>
<!DOCTYPE svg PUBLIC "-//W3C//DTD SVG 20010904//EN"
 "http://www.w3.org/TR/2001/REC-SVG-20010904/DTD/svg10.dtd">
<svg version="1.0" xmlns="http://www.w3.org/2000/svg"
 width="700.000000pt" height="700.000000pt" viewBox="0 0 700.000000 700.000000"
 preserveAspectRatio="xMidYMid meet">
<metadata>
Created by potrace 1.11, written by Peter Selinger 2001-2013
</metadata>
<g transform="translate(0.000000,700.000000) scale(0.100000,-0.100000)"
fill="#000000" stroke="none">
<path d="M1290 4484 c-141 -30 -254 -114 -306 -228 -13 -29 -34 -92 -45 -139
l-21 -86 -97 -3 -96 -3 -26 -135 c-14 -74 -24 -138 -22 -142 2 -5 44 -8 94 -8
58 0 89 -4 89 -11 0 -13 -169 -886 -176 -911 -5 -17 9 -18 193 -18 l198 0 91
468 91 467 166 3 166 2 11 58 c6 31 13 63 15 70 3 8 33 12 103 12 l99 0 10 55
c5 30 7 57 5 60 -3 3 -47 5 -99 5 -76 0 -93 3 -93 15 0 13 -25 15 -164 15
l-163 0 14 62 c31 136 52 148 247 148 74 0 137 4 140 9 4 5 15 54 26 108 11
54 22 108 25 121 l5 22 -207 -1 c-139 0 -230 -5 -273 -15z"/>
<path d="M3138 4424 c-137 -166 -268 -374 -342 -541 -198 -447 -204 -857 -20
-1297 l36 -86 152 0 c84 0 155 2 158 5 3 3 -7 46 -23 95 -128 410 -113 841 45
1245 73 187 191 402 310 568 31 42 56 80 56 82 0 3 -70 5 -155 5 l-155 0 -62
-76z"/>
<path d="M5270 4495 c0 -3 13 -51 30 -106 62 -209 75 -303 75 -544 0 -188 -3
-236 -23 -330 -41 -206 -101 -377 -202 -575 -61 -119 -184 -320 -240 -390 -17
-21 -30 -41 -30 -44 0 -3 70 -6 155 -6 l154 0 26 28 c46 47 191 244 245 331
125 202 229 459 265 656 22 124 30 331 16 447 -15 128 -60 302 -111 431 l-43
107 -158 0 c-88 0 -159 -2 -159 -5z"/>
<path d="M2103 4293 l-72 -15 -11 -51 c-6 -27 -9 -51 -8 -53 2 -1 34 4 72 12
38 8 70 13 72 12 2 -3 -59 -326 -71 -375 -5 -21 -11 -23 -74 -23 l-68 0 -10
-50 c-6 -27 -8 -52 -5 -55 3 -3 97 -5 208 -5 226 0 214 -4 228 73 l7 37 -65 0
c-36 0 -67 3 -69 8 -2 4 15 106 39 227 24 121 45 232 48 248 l6 27 -78 -1
c-42 -1 -109 -8 -149 -16z"/>
<path d="M3670 4022 c0 -5 72 -141 160 -303 l159 -294 -63 -65 c-117 -121
-516 -550 -516 -555 0 -3 94 -5 208 -5 l209 0 172 190 c95 105 175 190 177
190 2 0 47 -85 99 -190 l95 -190 206 0 206 0 -20 33 c-11 17 -88 159 -172 314
l-152 282 276 295 c152 162 276 297 276 300 0 3 -92 6 -204 6 -180 0 -206 -2
-223 -17 -11 -10 -84 -91 -162 -180 -79 -90 -145 -163 -147 -163 -2 0 -44 81
-94 180 l-90 180 -200 0 c-110 0 -200 -4 -200 -8z"/>
</g>
</svg>
