<?xml version="1.0" encoding="UTF-8" standalone="no"?>
<!DOCTYPE svg PUBLIC "-//W3C//DTD SVG 1.1//EN" "http://www.w3.org/Graphics/SVG/1.1/DTD/svg11.dtd">
<!--This file is ineligible for copyright and therefore in the public domain because it consists entirely of information that is common property and contains no original authorship. Author: Petr Kadlec.-->
<svg
   xmlns:dc="http://purl.org/dc/elements/1.1/"
   xmlns:cc="http://creativecommons.org/ns#"
   xmlns:rdf="http://www.w3.org/1999/02/22-rdf-syntax-ns#"
   xmlns:svg="http://www.w3.org/2000/svg"
   xmlns="http://www.w3.org/2000/svg"
   xmlns:xlink="http://www.w3.org/1999/xlink"
   xmlns:sodipodi="http://sodipodi.sourceforge.net/DTD/sodipodi-0.dtd"
   xmlns:inkscape="http://www.inkscape.org/namespaces/inkscape"
   viewBox="0 0 3900 6000"
   id="svg2"
   version="1.1"
   inkscape:version="0.47 r22583"
   width="100%"
   height="100%"
   sodipodi:docname="Semicubical_parabola.svg">
  <title
     id="title3756">Semicubic parabola</title>
  <metadata
     id="metadata176">
    <rdf:RDF>
      <cc:Work
         rdf:about="">
        <dc:format>image/svg+xml</dc:format>
        <dc:type
           rdf:resource="http://purl.org/dc/dcmitype/StillImage" />
        <dc:title>Semicubic parabola</dc:title>
        <dc:creator>
          <cc:Agent>
            <dc:title>Petr Kadlec &lt;http://commons.wikimedia.org/wiki/User:Mormegil&gt;</dc:title>
          </cc:Agent>
        </dc:creator>
        <cc:license
           rdf:resource="http://creativecommons.org/licenses/publicdomain/" />
        <dc:source>http://commons.wikimedia.org/wiki/File:Semicubical_parabola.svg</dc:source>
      </cc:Work>
      <cc:License
         rdf:about="http://creativecommons.org/licenses/publicdomain/">
        <cc:permits
           rdf:resource="http://creativecommons.org/ns#Reproduction" />
        <cc:permits
           rdf:resource="http://creativecommons.org/ns#Distribution" />
        <cc:permits
           rdf:resource="http://creativecommons.org/ns#DerivativeWorks" />
      </cc:License>
    </rdf:RDF>
  </metadata>
  <sodipodi:namedview
     pagecolor="#ffffff"
     bordercolor="#666666"
     borderopacity="1"
     objecttolerance="10"
     gridtolerance="10"
     guidetolerance="10"
     inkscape:pageopacity="0"
     inkscape:pageshadow="2"
     inkscape:window-width="1280"
     inkscape:window-height="1002"
     id="namedview174"
     showgrid="false"
     inkscape:zoom="0.078666667"
     inkscape:cx="697.26224"
     inkscape:cy="2285.1667"
     inkscape:window-x="1272"
     inkscape:window-y="-8"
     inkscape:window-maximized="1"
     inkscape:current-layer="svg2" />
  <desc
     id="desc4">Produced by GNUPLOT 4.5 patchlevel 0 </desc>
  <defs
     id="defs6">
    <inkscape:perspective
       sodipodi:type="inkscape:persp3d"
       inkscape:vp_x="0 : 3000 : 1"
       inkscape:vp_y="0 : 1000 : 0"
       inkscape:vp_z="3900 : 3000 : 1"
       inkscape:persp3d-origin="1950 : 2000 : 1"
       id="perspective178" />
    <circle
       id="gpDot"
       r="0.5"
       stroke-width="0.5" />
    <path
       id="gpPt0"
       stroke-width="0.022"
       stroke="currentColor"
       d="M-1,0 h2 M0,-1 v2" />
    <path
       id="gpPt1"
       stroke-width="0.022"
       stroke="currentColor"
       d="M-1,-1 L1,1 M1,-1 L-1,1" />
    <path
       id="gpPt2"
       stroke-width="0.022"
       stroke="currentColor"
       d="M-1,0 L1,0 M0,-1 L0,1 M-1,-1 L1,1 M-1,1 L1,-1" />
    <rect
       id="gpPt3"
       stroke-width="0.022"
       stroke="currentColor"
       x="-1"
       y="-1"
       width="2"
       height="2" />
    <rect
       id="gpPt4"
       stroke-width="0.022"
       stroke="currentColor"
       fill="currentColor"
       x="-1"
       y="-1"
       width="2"
       height="2" />
    <circle
       id="gpPt5"
       stroke-width="0.022"
       stroke="currentColor"
       cx="0"
       cy="0"
       r="1" />
    <use
       xlink:href="#gpPt5"
       id="gpPt6"
       fill="currentColor"
       stroke="none" />
    <path
       id="gpPt7"
       stroke-width="0.022"
       stroke="currentColor"
       d="M0,-1.33 L-1.33,0.67 L1.33,0.67 z" />
    <use
       xlink:href="#gpPt7"
       id="gpPt8"
       fill="currentColor"
       stroke="none" />
    <use
       xlink:href="#gpPt7"
       id="gpPt9"
       stroke="currentColor"
       transform="rotate(180)" />
    <use
       xlink:href="#gpPt9"
       id="gpPt10"
       fill="currentColor"
       stroke="none" />
    <use
       xlink:href="#gpPt3"
       id="gpPt11"
       stroke="currentColor"
       transform="rotate(45)" />
    <use
       xlink:href="#gpPt11"
       id="gpPt12"
       fill="currentColor"
       stroke="none" />
  </defs>
  <g
     style="fill:none; color:white; stroke:currentColor; stroke-width:1.00; stroke-linecap:butt; stroke-linejoin:miter"
     id="g22" />
  <g
     style="fill:none;color:black;stroke:currentColor;stroke-width:10;stroke-linecap:butt;stroke-linejoin:miter;stroke-miterlimit:4;stroke-dasharray:none"
     id="g24">
    <path
       d="M461.4,5640.0 L551.4,5640.0 M3648.2,5640.0 L3558.2,5640.0 "
       id="path26"
       style="stroke-width:10;stroke-miterlimit:4;stroke-dasharray:none" />
    <g
       transform="translate(377.5,5685.0)"
       style="stroke:none;fill:black;font-family:Arial;font-size:120pt;text-anchor:end;stroke-width:10;stroke-miterlimit:4;stroke-dasharray:none"
       id="g28">
      <text
         id="text30"
         style="stroke-width:10;stroke-miterlimit:4;stroke-dasharray:none">-10</text>
    </g>
    <path
       d="M461.4,5092.8 L551.4,5092.8 M3648.2,5092.8 L3558.2,5092.8 "
       id="path32"
       style="stroke-width:10;stroke-miterlimit:4;stroke-dasharray:none" />
    <g
       transform="translate(377.5,5137.8)"
       style="stroke:none;fill:black;font-family:Arial;font-size:120pt;text-anchor:end;stroke-width:10;stroke-miterlimit:4;stroke-dasharray:none"
       id="g34">
      <text
         id="text36"
         style="stroke-width:10;stroke-miterlimit:4;stroke-dasharray:none">-8</text>
    </g>
    <path
       d="M461.4,4545.6 L551.4,4545.6 M3648.2,4545.6 L3558.2,4545.6 "
       id="path38"
       style="stroke-width:10;stroke-miterlimit:4;stroke-dasharray:none" />
    <g
       transform="translate(377.5,4590.6)"
       style="stroke:none;fill:black;font-family:Arial;font-size:120pt;text-anchor:end;stroke-width:10;stroke-miterlimit:4;stroke-dasharray:none"
       id="g40">
      <text
         id="text42"
         style="stroke-width:10;stroke-miterlimit:4;stroke-dasharray:none">-6</text>
    </g>
    <path
       d="M461.4,3998.4 L551.4,3998.4 M3648.2,3998.4 L3558.2,3998.4 "
       id="path44"
       style="stroke-width:10;stroke-miterlimit:4;stroke-dasharray:none" />
    <g
       transform="translate(377.5,4043.4)"
       style="stroke:none;fill:black;font-family:Arial;font-size:120pt;text-anchor:end;stroke-width:10;stroke-miterlimit:4;stroke-dasharray:none"
       id="g46">
      <text
         id="text48"
         style="stroke-width:10;stroke-miterlimit:4;stroke-dasharray:none">-4</text>
    </g>
    <path
       d="M461.4,3451.2 L551.4,3451.2 M3648.2,3451.2 L3558.2,3451.2 "
       id="path50"
       style="stroke-width:10;stroke-miterlimit:4;stroke-dasharray:none" />
    <g
       transform="translate(377.5,3496.2)"
       style="stroke:none;fill:black;font-family:Arial;font-size:120pt;text-anchor:end;stroke-width:10;stroke-miterlimit:4;stroke-dasharray:none"
       id="g52">
      <text
         id="text54"
         style="stroke-width:10;stroke-miterlimit:4;stroke-dasharray:none">-2</text>
    </g>
    <path
       d="M461.4,2903.9 L551.4,2903.9 M3648.2,2903.9 L3558.2,2903.9 "
       id="path56"
       style="stroke-width:10;stroke-miterlimit:4;stroke-dasharray:none" />
    <g
       transform="translate(377.5,2948.9)"
       style="stroke:none;fill:black;font-family:Arial;font-size:120pt;text-anchor:end;stroke-width:10;stroke-miterlimit:4;stroke-dasharray:none"
       id="g58">
      <text
         id="text60"
         style="stroke-width:10;stroke-miterlimit:4;stroke-dasharray:none"> 0</text>
    </g>
    <path
       d="M461.4,2356.7 L551.4,2356.7 M3648.2,2356.7 L3558.2,2356.7 "
       id="path62"
       style="stroke-width:10;stroke-miterlimit:4;stroke-dasharray:none" />
    <g
       transform="translate(377.5,2401.7)"
       style="stroke:none;fill:black;font-family:Arial;font-size:120pt;text-anchor:end;stroke-width:10;stroke-miterlimit:4;stroke-dasharray:none"
       id="g64">
      <text
         id="text66"
         style="stroke-width:10;stroke-miterlimit:4;stroke-dasharray:none"> 2</text>
    </g>
    <path
       d="M461.4,1809.5 L551.4,1809.5 M3648.2,1809.5 L3558.2,1809.5 "
       id="path68"
       style="stroke-width:10;stroke-miterlimit:4;stroke-dasharray:none" />
    <g
       transform="translate(377.5,1854.5)"
       style="stroke:none;fill:black;font-family:Arial;font-size:120pt;text-anchor:end;stroke-width:10;stroke-miterlimit:4;stroke-dasharray:none"
       id="g70">
      <text
         id="text72"
         style="stroke-width:10;stroke-miterlimit:4;stroke-dasharray:none"> 4</text>
    </g>
    <path
       d="M461.4,1262.3 L551.4,1262.3 M3648.2,1262.3 L3558.2,1262.3 "
       id="path74"
       style="stroke-width:10;stroke-miterlimit:4;stroke-dasharray:none" />
    <g
       transform="translate(377.5,1307.3)"
       style="stroke:none;fill:black;font-family:Arial;font-size:120pt;text-anchor:end;stroke-width:10;stroke-miterlimit:4;stroke-dasharray:none"
       id="g76">
      <text
         id="text78"
         style="stroke-width:10;stroke-miterlimit:4;stroke-dasharray:none"> 6</text>
    </g>
    <path
       d="M461.4,715.1 L551.4,715.1 M3648.2,715.1 L3558.2,715.1 "
       id="path80"
       style="stroke-width:10;stroke-miterlimit:4;stroke-dasharray:none" />
    <g
       transform="translate(377.5,760.1)"
       style="stroke:none;fill:black;font-family:Arial;font-size:120pt;text-anchor:end;stroke-width:10;stroke-miterlimit:4;stroke-dasharray:none"
       id="g82">
      <text
         id="text84"
         style="stroke-width:10;stroke-miterlimit:4;stroke-dasharray:none"> 8</text>
    </g>
    <path
       d="M461.4,167.9 L551.4,167.9 M3648.2,167.9 L3558.2,167.9 "
       id="path86"
       style="stroke-width:10;stroke-miterlimit:4;stroke-dasharray:none" />
    <g
       transform="translate(377.5,212.9)"
       style="stroke:none;fill:black;font-family:Arial;font-size:120pt;text-anchor:end;stroke-width:10;stroke-miterlimit:4;stroke-dasharray:none"
       id="g88">
      <text
         id="text90"
         style="stroke-width:10;stroke-miterlimit:4;stroke-dasharray:none"> 10</text>
    </g>
    <path
       d="M706.5,5640.0 L706.5,5550.0 M706.5,167.9 L706.5,257.9 "
       id="path92"
       style="stroke-width:10;stroke-miterlimit:4;stroke-dasharray:none" />
    <g
       transform="translate(706.5,5865.0)"
       style="stroke:none;fill:black;font-family:Arial;font-size:120pt;text-anchor:middle;stroke-width:10;stroke-miterlimit:4;stroke-dasharray:none"
       id="g94">
      <text
         id="text96"
         style="stroke-width:10;stroke-miterlimit:4;stroke-dasharray:none">-2</text>
    </g>
    <path
       d="M1196.8,5640.0 L1196.8,5550.0 M1196.8,167.9 L1196.8,257.9 "
       id="path98"
       style="stroke-width:10;stroke-miterlimit:4;stroke-dasharray:none" />
    <g
       transform="translate(1196.8,5865.0)"
       style="stroke:none;fill:black;font-family:Arial;font-size:120pt;text-anchor:middle;stroke-width:10;stroke-miterlimit:4;stroke-dasharray:none"
       id="g100">
      <text
         id="text102"
         style="stroke-width:10;stroke-miterlimit:4;stroke-dasharray:none"> 0</text>
    </g>
    <path
       d="M1687.1,5640.0 L1687.1,5550.0 M1687.1,167.9 L1687.1,257.9 "
       id="path104"
       style="stroke-width:10;stroke-miterlimit:4;stroke-dasharray:none" />
    <g
       transform="translate(1687.1,5865.0)"
       style="stroke:none;fill:black;font-family:Arial;font-size:120pt;text-anchor:middle;stroke-width:10;stroke-miterlimit:4;stroke-dasharray:none"
       id="g106">
      <text
         id="text108"
         style="stroke-width:10;stroke-miterlimit:4;stroke-dasharray:none"> 2</text>
    </g>
    <path
       d="M2177.4,5640.0 L2177.4,5550.0 M2177.4,167.9 L2177.4,257.9 "
       id="path110"
       style="stroke-width:10;stroke-miterlimit:4;stroke-dasharray:none" />
    <g
       transform="translate(2177.4,5865.0)"
       style="stroke:none;fill:black;font-family:Arial;font-size:120pt;text-anchor:middle;stroke-width:10;stroke-miterlimit:4;stroke-dasharray:none"
       id="g112">
      <text
         id="text114"
         style="stroke-width:10;stroke-miterlimit:4;stroke-dasharray:none"> 4</text>
    </g>
    <path
       d="M2667.6,5640.0 L2667.6,5550.0 M2667.6,167.9 L2667.6,257.9 "
       id="path116"
       style="stroke-width:10;stroke-miterlimit:4;stroke-dasharray:none" />
    <g
       transform="translate(2667.6,5865.0)"
       style="stroke:none;fill:black;font-family:Arial;font-size:120pt;text-anchor:middle;stroke-width:10;stroke-miterlimit:4;stroke-dasharray:none"
       id="g118">
      <text
         id="text120"
         style="stroke-width:10;stroke-miterlimit:4;stroke-dasharray:none"> 6</text>
    </g>
    <path
       d="M3157.9,5640.0 L3157.9,5550.0 M3157.9,167.9 L3157.9,257.9 "
       id="path122"
       style="stroke-width:10;stroke-miterlimit:4;stroke-dasharray:none" />
    <g
       transform="translate(3157.9,5865.0)"
       style="stroke:none;fill:black;font-family:Arial;font-size:120pt;text-anchor:middle;stroke-width:10;stroke-miterlimit:4;stroke-dasharray:none"
       id="g124">
      <text
         id="text126"
         style="stroke-width:10;stroke-miterlimit:4;stroke-dasharray:none"> 8</text>
    </g>
    <path
       d="M3648.2,5640.0 L3648.2,5550.0 M3648.2,167.9 L3648.2,257.9 "
       id="path128"
       style="stroke-width:10;stroke-miterlimit:4;stroke-dasharray:none" />
    <g
       transform="translate(3648.2,5865.0)"
       style="stroke:none;fill:black;font-family:Arial;font-size:120pt;text-anchor:middle;stroke-width:10;stroke-miterlimit:4;stroke-dasharray:none"
       id="g130">
      <text
         id="text132"
         style="stroke-width:10;stroke-miterlimit:4;stroke-dasharray:none"> 10</text>
    </g>
  </g>
  <g
     style="fill:none; color:gray; stroke:currentColor; stroke-width:1.00; stroke-linecap:butt; stroke-linejoin:miter"
     id="g134">
    <path
       d="M461.4,2903.9 L3648.2,2903.9 M1196.8,5640.0 L1196.8,167.9 "
       id="path136"
       style="stroke-width:10;stroke-miterlimit:4;stroke-dasharray:none" />
  </g>
  <g
     style="fill:none; color:black; stroke:currentColor; stroke-width:1.00; stroke-linecap:butt; stroke-linejoin:miter"
     id="g138">
    <path
       d="M461.4,167.9 L461.4,5640.0 L3648.2,5640.0 L3648.2,167.9 L461.4,167.9 Z "
       id="path140" />
  </g>
  <g
     style="fill:none; color:white; stroke:currentColor; stroke-width:10.00; stroke-linecap:butt; stroke-linejoin:miter"
     id="g142" />
  <g
     style="fill:none; color:red; stroke:currentColor; stroke-width:10.00; stroke-linecap:butt; stroke-linejoin:miter"
     id="g144">
    <g
       transform="translate(1132.6,392.9)"
       style="stroke:none; fill:black; font-family:Arial; font-size:120.00pt; text-anchor:end"
       id="g146">
      <text
         id="text148">a = 1/3</text>
    </g>
    <path
       d="M1216.5,347.9 L1642.1,347.9 M3563.6,5640.0 L3558.5,5631.2 L3548.8,5614.4 L3539.1,5597.6 L3529.4,5580.9 L3519.7,5564.2    L3510.0,5547.6 L3500.4,5531.1 L3490.8,5514.7 L3481.2,5498.3 L3471.6,5482.0 L3462.0,5465.8 L3452.5,5449.6 L3443.0,5433.5    L3433.5,5417.5 L3424.0,5401.6 L3414.6,5385.7 L3405.1,5369.8 L3395.7,5354.1 L3386.3,5338.4 L3376.9,5322.8 L3367.6,5307.2    L3358.2,5291.7 L3348.9,5276.3 L3339.6,5261.0 L3330.4,5245.7 L3321.1,5230.4 L3311.9,5215.3 L3302.6,5200.2 L3293.4,5185.2    L3284.3,5170.2 L3275.1,5155.3 L3266.0,5140.5 L3256.9,5125.7 L3247.8,5111.0 L3238.7,5096.4 L3229.6,5081.8 L3220.6,5067.3    L3211.6,5052.9 L3202.6,5038.5 L3193.6,5024.2 L3184.7,5010.0 L3175.7,4995.8 L3166.8,4981.7 L3157.9,4967.6 L3149.1,4953.6    L3140.2,4939.7 L3131.4,4925.8 L3122.6,4912.0 L3113.8,4898.3 L3105.0,4884.6 L3096.2,4871.0 L3087.5,4857.5 L3078.8,4844.0    L3070.1,4830.5 L3061.4,4817.2 L3052.8,4803.9 L3044.1,4790.6 L3035.5,4777.5 L3026.9,4764.3 L3018.4,4751.3 L3009.8,4738.3    L3001.3,4725.4 L2992.8,4712.5 L2984.3,4699.7 L2975.8,4686.9 L2967.3,4674.2 L2958.9,4661.6 L2950.5,4649.0 L2942.1,4636.5    L2933.7,4624.1 L2925.4,4611.7 L2917.1,4599.4 L2908.8,4587.1 L2900.5,4574.9 L2892.2,4562.7 L2883.9,4550.6 L2875.7,4538.6    L2867.5,4526.6 L2859.3,4514.7 L2851.1,4502.8 L2843.0,4491.0 L2834.9,4479.3 L2826.8,4467.6 L2818.7,4456.0 L2810.6,4444.4    L2802.6,4432.9 L2794.5,4421.5 L2786.5,4410.1 L2778.5,4398.7 L2770.6,4387.4 L2762.6,4376.2 L2754.7,4365.1 L2746.8,4353.9    L2738.9,4342.9 L2731.0,4331.9 L2723.2,4320.9 L2715.3,4310.1 L2707.5,4299.2 L2699.7,4288.5 L2692.0,4277.7 L2684.2,4267.1    L2676.5,4256.5 L2668.8,4245.9 L2661.1,4235.4 L2653.4,4225.0 L2645.8,4214.6 L2638.2,4204.3 L2630.6,4194.0 L2623.0,4183.7    L2615.4,4173.6 L2607.9,4163.5 L2600.3,4153.4 L2592.8,4143.4 L2585.4,4133.4 L2577.9,4123.5 L2570.4,4113.7 L2563.0,4103.9    L2555.6,4094.1 L2548.2,4084.5 L2540.9,4074.8 L2533.5,4065.2 L2526.2,4055.7 L2518.9,4046.2 L2511.6,4036.8 L2504.3,4027.4    L2497.1,4018.1 L2489.9,4008.8 L2482.7,3999.6 L2475.5,3990.4 L2468.3,3981.3 L2461.2,3972.3 L2454.1,3963.2 L2447.0,3954.3    L2439.9,3945.4 L2432.8,3936.5 L2425.8,3927.7 L2418.7,3918.9 L2411.7,3910.2 L2404.8,3901.5 L2397.8,3892.9 L2390.9,3884.4    L2383.9,3875.9 L2377.0,3867.4 L2370.1,3859.0 L2363.3,3850.6 L2356.4,3842.3 L2349.6,3834.0 L2342.8,3825.8 L2336.0,3817.6    L2329.3,3809.5 L2322.5,3801.5 L2315.8,3793.4 L2309.1,3785.4 L2302.4,3777.5 L2295.8,3769.6 L2289.1,3761.8 L2282.5,3754.0    L2275.9,3746.3 L2269.3,3738.6 L2262.8,3730.9 L2256.2,3723.3 L2249.7,3715.8 L2243.2,3708.3 L2236.7,3700.8 L2230.3,3693.4    L2223.8,3686.0 L2217.4,3678.7 L2211.0,3671.4 L2204.6,3664.2 L2198.3,3657.0 L2191.9,3649.9 L2185.6,3642.8 L2179.3,3635.8    L2173.1,3628.8 L2166.8,3621.8 L2160.6,3614.9 L2154.3,3608.0 L2148.1,3601.2 L2142.0,3594.4 L2135.8,3587.7 L2129.7,3581.0    L2123.6,3574.3 L2117.5,3567.7 L2111.4,3561.2 L2105.3,3554.6 L2099.3,3548.2 L2093.3,3541.7 L2087.3,3535.4 L2081.3,3529.0    L2075.3,3522.7 L2069.4,3516.4 L2063.5,3510.2 L2057.6,3504.1 L2051.7,3497.9 L2045.9,3491.8 L2040.0,3485.8 L2034.2,3479.8    L2028.4,3473.8 L2022.6,3467.9 L2016.9,3462.0 L2011.2,3456.1 L2005.4,3450.3 L1999.7,3444.6 L1994.1,3438.9 L1988.4,3433.2    L1982.8,3427.5 L1977.2,3421.9 L1971.6,3416.4 L1966.0,3410.9 L1960.4,3405.4 L1954.9,3399.9 L1949.4,3394.5 L1943.9,3389.2    L1938.4,3383.9 L1933.0,3378.6 L1927.5,3373.3 L1922.1,3368.1 L1916.7,3363.0 L1911.4,3357.8 L1906.0,3352.7 L1900.7,3347.7    L1895.4,3342.7 L1890.1,3337.7 L1884.8,3332.8 L1879.6,3327.9 L1874.3,3323.0 L1869.1,3318.2 L1863.9,3313.4 L1858.8,3308.6    L1853.6,3303.9 L1848.5,3299.2 L1843.4,3294.6 L1838.3,3290.0 L1833.2,3285.4 L1828.1,3280.9 L1823.1,3276.4 L1818.1,3271.9    L1813.1,3267.5 L1808.1,3263.1 L1803.2,3258.8 L1798.3,3254.4 L1793.4,3250.2 L1788.5,3245.9 L1783.6,3241.7 L1778.7,3237.5    L1773.9,3233.4 L1769.1,3229.3 L1764.3,3225.2 L1759.5,3221.2 L1754.8,3217.1 L1750.1,3213.2 L1745.4,3209.2 L1740.7,3205.3    L1736.0,3201.5 L1731.4,3197.6 L1726.7,3193.8 L1722.1,3190.0 L1717.5,3186.3 L1713.0,3182.6 L1708.4,3178.9 L1703.9,3175.3    L1699.4,3171.7 L1694.9,3168.1 L1690.4,3164.5 L1686.0,3161.0 L1681.6,3157.6 L1677.1,3154.1 L1672.8,3150.7 L1668.4,3147.3    L1664.0,3143.9 L1659.7,3140.6 L1655.4,3137.3 L1651.1,3134.1 L1646.9,3130.8 L1642.6,3127.6 L1638.4,3124.4 L1634.2,3121.3    L1630.0,3118.2 L1625.8,3115.1 L1621.7,3112.1 L1617.6,3109.0 L1613.5,3106.0 L1609.4,3103.1 L1605.3,3100.1 L1601.3,3097.2    L1597.2,3094.4 L1593.2,3091.5 L1589.3,3088.7 L1585.3,3085.9 L1581.3,3083.1 L1577.4,3080.4 L1573.5,3077.7 L1569.6,3075.0    L1565.8,3072.4 L1561.9,3069.7 L1558.1,3067.1 L1554.3,3064.6 L1550.5,3062.0 L1546.8,3059.5 L1543.0,3057.0 L1539.3,3054.6    L1535.6,3052.1 L1531.9,3049.7 L1528.2,3047.3 L1524.6,3045.0 L1521.0,3042.6 L1517.4,3040.3 L1513.8,3038.1 L1510.2,3035.8    L1506.7,3033.6 L1503.2,3031.4 L1499.7,3029.2 L1496.2,3027.0 L1492.7,3024.9 L1489.3,3022.8 L1485.9,3020.7 L1482.5,3018.7    L1479.1,3016.6 L1475.7,3014.6 L1472.4,3012.7 L1469.1,3010.7 L1465.8,3008.8 L1462.5,3006.8 L1459.2,3005.0 L1456.0,3003.1    L1452.8,3001.3 L1449.6,2999.4 L1446.4,2997.6 L1443.2,2995.9 L1440.1,2994.1 L1437.0,2992.4 L1433.9,2990.7 L1430.8,2989.0    L1427.7,2987.3 L1424.7,2985.7 L1421.7,2984.1 L1418.7,2982.5 L1415.7,2980.9 L1412.7,2979.3 L1409.8,2977.8 L1406.9,2976.3    L1404.0,2974.8 L1401.1,2973.3 L1398.3,2971.9 L1395.4,2970.5 L1392.6,2969.0 L1389.8,2967.7 L1387.0,2966.3 L1384.3,2964.9    L1381.5,2963.6 L1378.8,2962.3 L1376.1,2961.0 L1373.4,2959.7 L1370.8,2958.5 L1368.2,2957.2 L1365.5,2956.0 L1362.9,2954.8    L1360.4,2953.7 L1357.8,2952.5 L1355.3,2951.3 L1352.8,2950.2 L1350.3,2949.1 L1347.8,2948.0 L1345.3,2947.0 L1342.9,2945.9    L1340.5,2944.9 L1338.1,2943.9 L1335.7,2942.9 L1333.4,2941.9 L1331.0,2940.9 L1328.7,2939.9 L1326.4,2939.0 L1324.1,2938.1    L1321.9,2937.2 L1319.7,2936.3 L1317.4,2935.4 L1315.3,2934.6 L1313.1,2933.7 L1310.9,2932.9 L1308.8,2932.1 L1306.7,2931.3    L1304.6,2930.5 L1302.5,2929.8 L1300.5,2929.0 L1298.4,2928.3 L1296.4,2927.6 L1294.4,2926.9 L1292.5,2926.2 L1290.5,2925.5    L1288.6,2924.8 L1286.7,2924.2 L1284.8,2923.6 L1282.9,2922.9 L1281.0,2922.3 L1279.2,2921.7 L1277.4,2921.1 L1275.6,2920.6    L1273.8,2920.0 L1272.1,2919.5 L1270.4,2918.9 L1268.7,2918.4 L1267.0,2917.9 L1265.3,2917.4 L1263.6,2916.9 L1262.0,2916.5    L1260.4,2916.0 L1258.8,2915.5 L1257.2,2915.1 L1255.7,2914.7 L1254.2,2914.3 L1252.7,2913.9 L1251.2,2913.5 L1249.7,2913.1    L1248.2,2912.7 L1246.8,2912.4 L1245.4,2912.0 L1244.0,2911.7 L1242.7,2911.3 L1241.3,2911.0 L1240.0,2910.7 L1238.7,2910.4    L1237.4,2910.1 L1236.1,2909.8 L1234.9,2909.5 L1233.6,2909.3 L1232.4,2909.0 L1231.2,2908.8 L1230.1,2908.5 L1228.9,2908.3    L1227.8,2908.0 L1226.7,2907.8 L1225.6,2907.6 L1224.5,2907.4 L1223.5,2907.2 L1222.5,2907.0 L1221.5,2906.9 L1220.5,2906.7    L1219.5,2906.5 L1218.6,2906.4 L1217.6,2906.2 L1216.7,2906.1 L1215.9,2905.9 L1215.0,2905.8 L1214.1,2905.7 L1213.3,2905.5    L1212.5,2905.4 L1211.7,2905.3 L1211.0,2905.2 L1210.2,2905.1 L1209.5,2905.0 L1208.8,2904.9 L1208.1,2904.9 L1207.4,2904.8    L1206.8,2904.7 L1206.2,2904.6 L1205.6,2904.6 L1205.0,2904.5 L1204.4,2904.4 L1203.9,2904.4 L1203.4,2904.3 L1202.9,2904.3    L1202.4,2904.3 L1201.9,2904.2 L1201.5,2904.2 L1201.0,2904.2 L1200.6,2904.1 L1200.3,2904.1 L1199.9,2904.1 L1199.6,2904.1    L1199.2,2904.0 L1198.9,2904.0 L1198.6,2904.0 L1198.4,2904.0 L1198.1,2904.0 L1197.9,2904.0 L1197.7,2904.0 L1197.5,2904.0    L1197.4,2904.0 L1197.2,2904.0 L1197.1,2904.0 L1197.0,2904.0 L1196.9,2904.0 L1196.8,2904.0 L1196.8,2903.9 L1196.9,2903.9    L1197.0,2903.9 L1197.1,2903.9 L1197.2,2903.9 L1197.4,2903.9 L1197.5,2903.9 L1197.7,2903.9 L1197.9,2903.9 L1198.1,2903.9    L1198.4,2903.9 L1198.6,2903.9 L1198.9,2903.9 L1199.2,2903.9 L1199.6,2903.8 L1199.9,2903.8 L1200.3,2903.8 L1200.6,2903.8    L1201.0,2903.7 L1201.5,2903.7 L1201.9,2903.7 L1202.4,2903.6 L1202.9,2903.6 L1203.4,2903.6 L1203.9,2903.5 L1204.4,2903.5    L1205.0,2903.4 L1205.6,2903.3 L1206.2,2903.3 L1206.8,2903.2 L1207.4,2903.1 L1208.1,2903.0 L1208.8,2903.0 L1209.5,2902.9    L1210.2,2902.8 L1211.0,2902.7 L1211.7,2902.6 L1212.5,2902.5 L1213.3,2902.4 L1214.1,2902.2 L1215.0,2902.1 L1215.9,2902.0    L1216.7,2901.8 L1217.6,2901.7 L1218.6,2901.5 L1219.5,2901.4 L1220.5,2901.2 L1221.5,2901.0 L1222.5,2900.9 L1223.5,2900.7    L1224.5,2900.5 L1225.6,2900.3 L1226.7,2900.1 L1227.8,2899.9 L1228.9,2899.6 L1230.1,2899.4 L1231.2,2899.1 L1232.4,2898.9    L1233.6,2898.6 L1234.9,2898.4 L1236.1,2898.1 L1237.4,2897.8 L1238.7,2897.5 L1240.0,2897.2 L1241.3,2896.9 L1242.7,2896.6    L1244.0,2896.2 L1245.4,2895.9 L1246.8,2895.5 L1248.2,2895.2 L1249.7,2894.8 L1251.2,2894.4 L1252.7,2894.0 L1254.2,2893.6    L1255.7,2893.2 L1257.2,2892.8 L1258.8,2892.4 L1260.4,2891.9 L1262.0,2891.4 L1263.6,2891.0 L1265.3,2890.5 L1267.0,2890.0    L1268.7,2889.5 L1270.4,2889.0 L1272.1,2888.4 L1273.8,2887.9 L1275.6,2887.3 L1277.4,2886.8 L1279.2,2886.2 L1281.0,2885.6    L1282.9,2885.0 L1284.8,2884.3 L1286.7,2883.7 L1288.6,2883.1 L1290.5,2882.4 L1292.5,2881.7 L1294.4,2881.0 L1296.4,2880.3    L1298.4,2879.6 L1300.5,2878.9 L1302.5,2878.1 L1304.6,2877.4 L1306.7,2876.6 L1308.8,2875.8 L1310.9,2875.0 L1313.1,2874.2    L1315.3,2873.3 L1317.4,2872.5 L1319.7,2871.6 L1321.9,2870.7 L1324.1,2869.8 L1326.4,2868.9 L1328.7,2868.0 L1331.0,2867.0    L1333.4,2866.0 L1335.7,2865.0 L1338.1,2864.0 L1340.5,2863.0 L1342.9,2862.0 L1345.3,2860.9 L1347.8,2859.9 L1350.3,2858.8    L1352.8,2857.7 L1355.3,2856.6 L1357.8,2855.4 L1360.4,2854.2 L1362.9,2853.1 L1365.5,2851.9 L1368.2,2850.7 L1370.8,2849.4    L1373.4,2848.2 L1376.1,2846.9 L1378.8,2845.6 L1381.5,2844.3 L1384.3,2843.0 L1387.0,2841.6 L1389.8,2840.2 L1392.6,2838.9    L1395.4,2837.4 L1398.3,2836.0 L1401.1,2834.6 L1404.0,2833.1 L1406.9,2831.6 L1409.8,2830.1 L1412.7,2828.6 L1415.7,2827.0    L1418.7,2825.4 L1421.7,2823.8 L1424.7,2822.2 L1427.7,2820.6 L1430.8,2818.9 L1433.9,2817.2 L1437.0,2815.5 L1440.1,2813.8    L1443.2,2812.0 L1446.4,2810.3 L1449.6,2808.5 L1452.8,2806.6 L1456.0,2804.8 L1459.2,2802.9 L1462.5,2801.1 L1465.8,2799.1    L1469.1,2797.2 L1472.4,2795.2 L1475.7,2793.3 L1479.1,2791.3 L1482.5,2789.2 L1485.9,2787.2 L1489.3,2785.1 L1492.7,2783.0    L1496.2,2780.9 L1499.7,2778.7 L1503.2,2776.5 L1506.7,2774.3 L1510.2,2772.1 L1513.8,2769.8 L1517.4,2767.6 L1521.0,2765.3    L1524.6,2762.9 L1528.2,2760.6 L1531.9,2758.2 L1535.6,2755.8 L1539.3,2753.3 L1543.0,2750.9 L1546.8,2748.4 L1550.5,2745.9    L1554.3,2743.3 L1558.1,2740.8 L1561.9,2738.2 L1565.8,2735.5 L1569.6,2732.9 L1573.5,2730.2 L1577.4,2727.5 L1581.3,2724.8    L1585.3,2722.0 L1589.3,2719.2 L1593.2,2716.4 L1597.2,2713.5 L1601.3,2710.7 L1605.3,2707.8 L1609.4,2704.8 L1613.5,2701.9    L1617.6,2698.9 L1621.7,2695.8 L1625.8,2692.8 L1630.0,2689.7 L1634.2,2686.6 L1638.4,2683.5 L1642.6,2680.3 L1646.9,2677.1    L1651.1,2673.8 L1655.4,2670.6 L1659.7,2667.3 L1664.0,2664.0 L1668.4,2660.6 L1672.8,2657.2 L1677.1,2653.8 L1681.6,2650.3    L1686.0,2646.9 L1690.4,2643.4 L1694.9,2639.8 L1699.4,2636.2 L1703.9,2632.6 L1708.4,2629.0 L1713.0,2625.3 L1717.5,2621.6    L1722.1,2617.9 L1726.7,2614.1 L1731.4,2610.3 L1736.0,2606.4 L1740.7,2602.6 L1745.4,2598.7 L1750.1,2594.7 L1754.8,2590.8    L1759.5,2586.7 L1764.3,2582.7 L1769.1,2578.6 L1773.9,2574.5 L1778.7,2570.4 L1783.6,2566.2 L1788.5,2562.0 L1793.4,2557.7    L1798.3,2553.5 L1803.2,2549.1 L1808.1,2544.8 L1813.1,2540.4 L1818.1,2536.0 L1823.1,2531.5 L1828.1,2527.0 L1833.2,2522.5    L1838.3,2517.9 L1843.4,2513.3 L1848.5,2508.7 L1853.6,2504.0 L1858.8,2499.3 L1863.9,2494.5 L1869.1,2489.7 L1874.3,2484.9    L1879.6,2480.0 L1884.8,2475.1 L1890.1,2470.2 L1895.4,2465.2 L1900.7,2460.2 L1906.0,2455.2 L1911.4,2450.1 L1916.7,2444.9    L1922.1,2439.8 L1927.5,2434.6 L1933.0,2429.3 L1938.4,2424.0 L1943.9,2418.7 L1949.4,2413.4 L1954.9,2408.0 L1960.4,2402.5    L1966.0,2397.0 L1971.6,2391.5 L1977.2,2386.0 L1982.8,2380.4 L1988.4,2374.7 L1994.1,2369.0 L1999.7,2363.3 L2005.4,2357.6    L2011.2,2351.8 L2016.9,2345.9 L2022.6,2340.0 L2028.4,2334.1 L2034.2,2328.1 L2040.0,2322.1 L2045.9,2316.1 L2051.7,2310.0    L2057.6,2303.8 L2063.5,2297.7 L2069.4,2291.5 L2075.3,2285.2 L2081.3,2278.9 L2087.3,2272.5 L2093.3,2266.2 L2099.3,2259.7    L2105.3,2253.3 L2111.4,2246.7 L2117.5,2240.2 L2123.6,2233.6 L2129.7,2226.9 L2135.8,2220.2 L2142.0,2213.5 L2148.1,2206.7    L2154.3,2199.9 L2160.6,2193.0 L2166.8,2186.1 L2173.1,2179.1 L2179.3,2172.1 L2185.6,2165.1 L2191.9,2158.0 L2198.3,2150.9    L2204.6,2143.7 L2211.0,2136.5 L2217.4,2129.2 L2223.8,2121.9 L2230.3,2114.5 L2236.7,2107.1 L2243.2,2099.6 L2249.7,2092.1    L2256.2,2084.6 L2262.8,2077.0 L2269.3,2069.3 L2275.9,2061.6 L2282.5,2053.9 L2289.1,2046.1 L2295.8,2038.3 L2302.4,2030.4    L2309.1,2022.5 L2315.8,2014.5 L2322.5,2006.4 L2329.3,1998.4 L2336.0,1990.3 L2342.8,1982.1 L2349.6,1973.9 L2356.4,1965.6    L2363.3,1957.3 L2370.1,1948.9 L2377.0,1940.5 L2383.9,1932.0 L2390.9,1923.5 L2397.8,1915.0 L2404.8,1906.4 L2411.7,1897.7    L2418.7,1889.0 L2425.8,1880.2 L2432.8,1871.4 L2439.9,1862.5 L2447.0,1853.6 L2454.1,1844.7 L2461.2,1835.6 L2468.3,1826.6    L2475.5,1817.5 L2482.7,1808.3 L2489.9,1799.1 L2497.1,1789.8 L2504.3,1780.5 L2511.6,1771.1 L2518.9,1761.7 L2526.2,1752.2    L2533.5,1742.7 L2540.9,1733.1 L2548.2,1723.4 L2555.6,1713.8 L2563.0,1704.0 L2570.4,1694.2 L2577.9,1684.4 L2585.4,1674.5    L2592.8,1664.5 L2600.3,1654.5 L2607.9,1644.4 L2615.4,1634.3 L2623.0,1624.2 L2630.6,1613.9 L2638.2,1603.6 L2645.8,1593.3    L2653.4,1582.9 L2661.1,1572.5 L2668.8,1562.0 L2676.5,1551.4 L2684.2,1540.8 L2692.0,1530.2 L2699.7,1519.4 L2707.5,1508.7    L2715.3,1497.8 L2723.2,1487.0 L2731.0,1476.0 L2738.9,1465.0 L2746.8,1454.0 L2754.7,1442.8 L2762.6,1431.7 L2770.6,1420.5    L2778.5,1409.2 L2786.5,1397.8 L2794.5,1386.4 L2802.6,1375.0 L2810.6,1363.5 L2818.7,1351.9 L2826.8,1340.3 L2834.9,1328.6    L2843.0,1316.9 L2851.1,1305.1 L2859.3,1293.2 L2867.5,1281.3 L2875.7,1269.3 L2883.9,1257.3 L2892.2,1245.2 L2900.5,1233.0    L2908.8,1220.8 L2917.1,1208.5 L2925.4,1196.2 L2933.7,1183.8 L2942.1,1171.4 L2950.5,1158.9 L2958.9,1146.3 L2967.3,1133.7    L2975.8,1121.0 L2984.3,1108.2 L2992.8,1095.4 L3001.3,1082.5 L3009.8,1069.6 L3018.4,1056.6 L3026.9,1043.6 L3035.5,1030.4    L3044.1,1017.3 L3052.8,1004.0 L3061.4,990.7 L3070.1,977.4 L3078.8,963.9 L3087.5,950.4 L3096.2,936.9 L3105.0,923.3    L3113.8,909.6 L3122.6,895.9 L3131.4,882.1 L3140.2,868.2 L3149.1,854.3 L3157.9,840.3 L3166.8,826.2 L3175.7,812.1    L3184.7,797.9 L3193.6,783.7 L3202.6,769.4 L3211.6,755.0 L3220.6,740.6 L3229.6,726.1 L3238.7,711.5 L3247.8,696.9    L3256.9,682.2 L3266.0,667.4 L3275.1,652.6 L3284.3,637.7 L3293.4,622.7 L3302.6,607.7 L3311.9,592.6 L3321.1,577.5    L3330.4,562.2 L3339.6,546.9 L3348.9,531.6 L3358.2,516.2 L3367.6,500.7 L3376.9,485.1 L3386.3,469.5 L3395.7,453.8    L3405.1,438.1 L3414.6,422.2 L3424.0,406.3 L3433.5,390.4 L3443.0,374.4 L3452.5,358.3 L3462.0,342.1 L3471.6,325.9    L3481.2,309.6 L3490.8,293.2 L3500.4,276.8 L3510.0,260.3 L3519.7,243.7 L3529.4,227.0 L3539.1,210.3 L3548.8,193.5    L3558.5,176.7 L3563.6,167.9 "
       id="path150" />
  </g>
  <g
     style="fill:none; color:green; stroke:currentColor; stroke-width:10.00; stroke-linecap:butt; stroke-linejoin:miter"
     id="g152">
    <g
       transform="translate(1132.6,572.9)"
       style="stroke:none; fill:black; font-family:Arial; font-size:120.00pt; text-anchor:end"
       id="g154">
      <text
         id="text156">a = 1</text>
    </g>
    <path
       d="M1216.5,527.9 L1642.1,527.9 M2334.6,5640.0 L2329.3,5620.7 L2322.5,5596.5 L2315.8,5572.4 L2309.1,5548.4 L2302.4,5524.7    L2295.8,5501.0 L2289.1,5477.5 L2282.5,5454.1 L2275.9,5430.9 L2269.3,5407.9 L2262.8,5384.9 L2256.2,5362.1 L2249.7,5339.5    L2243.2,5316.9 L2236.7,5294.6 L2230.3,5272.3 L2223.8,5250.2 L2217.4,5228.3 L2211.0,5206.4 L2204.6,5184.8 L2198.3,5163.2    L2191.9,5141.8 L2185.6,5120.5 L2179.3,5099.4 L2173.1,5078.4 L2166.8,5057.5 L2160.6,5036.7 L2154.3,5016.1 L2148.1,4995.7    L2142.0,4975.3 L2135.8,4955.1 L2129.7,4935.0 L2123.6,4915.1 L2117.5,4895.3 L2111.4,4875.6 L2105.3,4856.0 L2099.3,4836.6    L2093.3,4817.3 L2087.3,4798.2 L2081.3,4779.1 L2075.3,4760.2 L2069.4,4741.4 L2063.5,4722.8 L2057.6,4704.3 L2051.7,4685.8    L2045.9,4667.6 L2040.0,4649.4 L2034.2,4631.4 L2028.4,4613.5 L2022.6,4595.7 L2016.9,4578.1 L2011.2,4560.5 L2005.4,4543.1    L1999.7,4525.8 L1994.1,4508.7 L1988.4,4491.6 L1982.8,4474.7 L1977.2,4457.9 L1971.6,4441.2 L1966.0,4424.7 L1960.4,4408.2    L1954.9,4391.9 L1949.4,4375.7 L1943.9,4359.6 L1938.4,4343.7 L1933.0,4327.8 L1927.5,4312.1 L1922.1,4296.5 L1916.7,4281.0    L1911.4,4265.6 L1906.0,4250.3 L1900.7,4235.2 L1895.4,4220.1 L1890.1,4205.2 L1884.8,4190.4 L1879.6,4175.7 L1874.3,4161.1    L1869.1,4146.6 L1863.9,4132.2 L1858.8,4118.0 L1853.6,4103.8 L1848.5,4089.8 L1843.4,4075.9 L1838.3,4062.1 L1833.2,4048.4    L1828.1,4034.8 L1823.1,4021.3 L1818.1,4007.9 L1813.1,3994.6 L1808.1,3981.5 L1803.2,3968.4 L1798.3,3955.4 L1793.4,3942.6    L1788.5,3929.8 L1783.6,3917.2 L1778.7,3904.7 L1773.9,3892.2 L1769.1,3879.9 L1764.3,3867.7 L1759.5,3855.6 L1754.8,3843.5    L1750.1,3831.6 L1745.4,3819.8 L1740.7,3808.1 L1736.0,3796.5 L1731.4,3785.0 L1726.7,3773.5 L1722.1,3762.2 L1717.5,3751.0    L1713.0,3739.9 L1708.4,3728.9 L1703.9,3717.9 L1699.4,3707.1 L1694.9,3696.4 L1690.4,3685.7 L1686.0,3675.2 L1681.6,3664.8    L1677.1,3654.4 L1672.8,3644.1 L1668.4,3634.0 L1664.0,3623.9 L1659.7,3613.9 L1655.4,3604.1 L1651.1,3594.3 L1646.9,3584.6    L1642.6,3575.0 L1638.4,3565.4 L1634.2,3556.0 L1630.0,3546.7 L1625.8,3537.4 L1621.7,3528.3 L1617.6,3519.2 L1613.5,3510.2    L1609.4,3501.3 L1605.3,3492.5 L1601.3,3483.8 L1597.2,3475.2 L1593.2,3466.6 L1589.3,3458.2 L1585.3,3449.8 L1581.3,3441.5    L1577.4,3433.3 L1573.5,3425.2 L1569.6,3417.1 L1565.8,3409.2 L1561.9,3401.3 L1558.1,3393.5 L1554.3,3385.8 L1550.5,3378.2    L1546.8,3370.6 L1543.0,3363.1 L1539.3,3355.8 L1535.6,3348.5 L1531.9,3341.2 L1528.2,3334.1 L1524.6,3327.0 L1521.0,3320.0    L1517.4,3313.1 L1513.8,3306.3 L1510.2,3299.5 L1506.7,3292.8 L1503.2,3286.2 L1499.7,3279.7 L1496.2,3273.2 L1492.7,3266.8    L1489.3,3260.5 L1485.9,3254.3 L1482.5,3248.1 L1479.1,3242.0 L1475.7,3236.0 L1472.4,3230.1 L1469.1,3224.2 L1465.8,3218.4    L1462.5,3212.6 L1459.2,3207.0 L1456.0,3201.4 L1452.8,3195.9 L1449.6,3190.4 L1446.4,3185.0 L1443.2,3179.7 L1440.1,3174.4    L1437.0,3169.3 L1433.9,3164.1 L1430.8,3159.1 L1427.7,3154.1 L1424.7,3149.2 L1421.7,3144.3 L1418.7,3139.5 L1415.7,3134.8    L1412.7,3130.1 L1409.8,3125.5 L1406.9,3121.0 L1404.0,3116.5 L1401.1,3112.1 L1398.3,3107.8 L1395.4,3103.5 L1392.6,3099.2    L1389.8,3095.1 L1387.0,3091.0 L1384.3,3086.9 L1381.5,3082.9 L1378.8,3079.0 L1376.1,3075.1 L1373.4,3071.3 L1370.8,3067.5    L1368.2,3063.8 L1365.5,3060.2 L1362.9,3056.6 L1360.4,3053.1 L1357.8,3049.6 L1355.3,3046.1 L1352.8,3042.8 L1350.3,3039.5    L1347.8,3036.2 L1345.3,3033.0 L1342.9,3029.8 L1340.5,3026.7 L1338.1,3023.7 L1335.7,3020.7 L1333.4,3017.7 L1331.0,3014.8    L1328.7,3011.9 L1326.4,3009.1 L1324.1,3006.4 L1321.9,3003.7 L1319.7,3001.0 L1317.4,2998.4 L1315.3,2995.8 L1313.1,2993.3    L1310.9,2990.8 L1308.8,2988.4 L1306.7,2986.0 L1304.6,2983.7 L1302.5,2981.4 L1300.5,2979.2 L1298.4,2977.0 L1296.4,2974.8    L1294.4,2972.7 L1292.5,2970.6 L1290.5,2968.6 L1288.6,2966.6 L1286.7,2964.7 L1284.8,2962.8 L1282.9,2960.9 L1281.0,2959.1    L1279.2,2957.3 L1277.4,2955.5 L1275.6,2953.8 L1273.8,2952.1 L1272.1,2950.5 L1270.4,2948.9 L1268.7,2947.4 L1267.0,2945.8    L1265.3,2944.3 L1263.6,2942.9 L1262.0,2941.5 L1260.4,2940.1 L1258.8,2938.7 L1257.2,2937.4 L1255.7,2936.2 L1254.2,2934.9    L1252.7,2933.7 L1251.2,2932.5 L1249.7,2931.4 L1248.2,2930.2 L1246.8,2929.2 L1245.4,2928.1 L1244.0,2927.1 L1242.7,2926.1    L1241.3,2925.1 L1240.0,2924.2 L1238.7,2923.3 L1237.4,2922.4 L1236.1,2921.5 L1234.9,2920.7 L1233.6,2919.9 L1232.4,2919.1    L1231.2,2918.4 L1230.1,2917.6 L1228.9,2916.9 L1227.8,2916.2 L1226.7,2915.6 L1225.6,2915.0 L1224.5,2914.4 L1223.5,2913.8    L1222.5,2913.2 L1221.5,2912.7 L1220.5,2912.2 L1219.5,2911.7 L1218.6,2911.2 L1217.6,2910.7 L1216.7,2910.3 L1215.9,2909.9    L1215.0,2909.5 L1214.1,2909.1 L1213.3,2908.7 L1212.5,2908.4 L1211.7,2908.1 L1211.0,2907.7 L1210.2,2907.4 L1209.5,2907.2    L1208.8,2906.9 L1208.1,2906.7 L1207.4,2906.4 L1206.8,2906.2 L1206.2,2906.0 L1205.6,2905.8 L1205.0,2905.6 L1204.4,2905.4    L1203.9,2905.3 L1203.4,2905.1 L1202.9,2905.0 L1202.4,2904.9 L1201.9,2904.8 L1201.5,2904.7 L1201.0,2904.6 L1200.6,2904.5    L1200.3,2904.4 L1199.9,2904.3 L1199.6,2904.3 L1199.2,2904.2 L1198.9,2904.2 L1198.6,2904.1 L1198.4,2904.1 L1198.1,2904.1    L1197.9,2904.0 L1197.7,2904.0 L1197.5,2904.0 L1197.4,2904.0 L1197.2,2904.0 L1197.1,2904.0 L1197.0,2904.0 L1196.9,2904.0    L1196.8,2904.0 L1196.8,2903.9 L1196.9,2903.9 L1197.0,2903.9 L1197.1,2903.9 L1197.2,2903.9 L1197.4,2903.9 L1197.5,2903.9    L1197.7,2903.9 L1197.9,2903.9 L1198.1,2903.8 L1198.4,2903.8 L1198.6,2903.8 L1198.9,2903.7 L1199.2,2903.7 L1199.6,2903.6    L1199.9,2903.6 L1200.3,2903.5 L1200.6,2903.4 L1201.0,2903.3 L1201.5,2903.2 L1201.9,2903.1 L1202.4,2903.0 L1202.9,2902.9    L1203.4,2902.8 L1203.9,2902.6 L1204.4,2902.5 L1205.0,2902.3 L1205.6,2902.1 L1206.2,2901.9 L1206.8,2901.7 L1207.4,2901.5    L1208.1,2901.2 L1208.8,2901.0 L1209.5,2900.7 L1210.2,2900.5 L1211.0,2900.2 L1211.7,2899.8 L1212.5,2899.5 L1213.3,2899.2    L1214.1,2898.8 L1215.0,2898.4 L1215.9,2898.0 L1216.7,2897.6 L1217.6,2897.2 L1218.6,2896.7 L1219.5,2896.2 L1220.5,2895.7    L1221.5,2895.2 L1222.5,2894.7 L1223.5,2894.1 L1224.5,2893.5 L1225.6,2892.9 L1226.7,2892.3 L1227.8,2891.7 L1228.9,2891.0    L1230.1,2890.3 L1231.2,2889.5 L1232.4,2888.8 L1233.6,2888.0 L1234.9,2887.2 L1236.1,2886.4 L1237.4,2885.5 L1238.7,2884.6    L1240.0,2883.7 L1241.3,2882.8 L1242.7,2881.8 L1244.0,2880.8 L1245.4,2879.8 L1246.8,2878.7 L1248.2,2877.7 L1249.7,2876.5    L1251.2,2875.4 L1252.7,2874.2 L1254.2,2873.0 L1255.7,2871.7 L1257.2,2870.5 L1258.8,2869.2 L1260.4,2867.8 L1262.0,2866.4    L1263.6,2865.0 L1265.3,2863.6 L1267.0,2862.1 L1268.7,2860.5 L1270.4,2859.0 L1272.1,2857.4 L1273.8,2855.8 L1275.6,2854.1    L1277.4,2852.4 L1279.2,2850.6 L1281.0,2848.8 L1282.9,2847.0 L1284.8,2845.1 L1286.7,2843.2 L1288.6,2841.3 L1290.5,2839.3    L1292.5,2837.3 L1294.4,2835.2 L1296.4,2833.1 L1298.4,2830.9 L1300.5,2828.7 L1302.5,2826.5 L1304.6,2824.2 L1306.7,2821.9    L1308.8,2819.5 L1310.9,2817.1 L1313.1,2814.6 L1315.3,2812.1 L1317.4,2809.5 L1319.7,2806.9 L1321.9,2804.2 L1324.1,2801.5    L1326.4,2798.8 L1328.7,2796.0 L1331.0,2793.1 L1333.4,2790.2 L1335.7,2787.2 L1338.1,2784.2 L1340.5,2781.2 L1342.9,2778.1    L1345.3,2774.9 L1347.8,2771.7 L1350.3,2768.4 L1352.8,2765.1 L1355.3,2761.8 L1357.8,2758.3 L1360.4,2754.8 L1362.9,2751.3    L1365.5,2747.7 L1368.2,2744.1 L1370.8,2740.4 L1373.4,2736.6 L1376.1,2732.8 L1378.8,2728.9 L1381.5,2725.0 L1384.3,2721.0    L1387.0,2716.9 L1389.8,2712.8 L1392.6,2708.7 L1395.4,2704.4 L1398.3,2700.1 L1401.1,2695.8 L1404.0,2691.4 L1406.9,2686.9    L1409.8,2682.4 L1412.7,2677.8 L1415.7,2673.1 L1418.7,2668.4 L1421.7,2663.6 L1424.7,2658.7 L1427.7,2653.8 L1430.8,2648.8    L1433.9,2643.8 L1437.0,2638.6 L1440.1,2633.5 L1443.2,2628.2 L1446.4,2622.9 L1449.6,2617.5 L1452.8,2612.0 L1456.0,2606.5    L1459.2,2600.9 L1462.5,2595.3 L1465.8,2589.5 L1469.1,2583.7 L1472.4,2577.8 L1475.7,2571.9 L1479.1,2565.9 L1482.5,2559.8    L1485.9,2553.6 L1489.3,2547.4 L1492.7,2541.1 L1496.2,2534.7 L1499.7,2528.2 L1503.2,2521.7 L1506.7,2515.1 L1510.2,2508.4    L1513.8,2501.6 L1517.4,2494.8 L1521.0,2487.9 L1524.6,2480.9 L1528.2,2473.8 L1531.9,2466.7 L1535.6,2459.4 L1539.3,2452.1    L1543.0,2444.8 L1546.8,2437.3 L1550.5,2429.7 L1554.3,2422.1 L1558.1,2414.4 L1561.9,2406.6 L1565.8,2398.7 L1569.6,2390.8    L1573.5,2382.7 L1577.4,2374.6 L1581.3,2366.4 L1585.3,2358.1 L1589.3,2349.7 L1593.2,2341.3 L1597.2,2332.7 L1601.3,2324.1    L1605.3,2315.4 L1609.4,2306.6 L1613.5,2297.7 L1617.6,2288.7 L1621.7,2279.6 L1625.8,2270.5 L1630.0,2261.2 L1634.2,2251.9    L1638.4,2242.5 L1642.6,2232.9 L1646.9,2223.3 L1651.1,2213.6 L1655.4,2203.8 L1659.7,2194.0 L1664.0,2184.0 L1668.4,2173.9    L1672.8,2163.8 L1677.1,2153.5 L1681.6,2143.1 L1686.0,2132.7 L1690.4,2122.2 L1694.9,2111.5 L1699.4,2100.8 L1703.9,2090.0    L1708.4,2079.0 L1713.0,2068.0 L1717.5,2056.9 L1722.1,2045.7 L1726.7,2034.4 L1731.4,2022.9 L1736.0,2011.4 L1740.7,1999.8    L1745.4,1988.1 L1750.1,1976.3 L1754.8,1964.4 L1759.5,1952.3 L1764.3,1940.2 L1769.1,1928.0 L1773.9,1915.7 L1778.7,1903.2    L1783.6,1890.7 L1788.5,1878.1 L1793.4,1865.3 L1798.3,1852.5 L1803.2,1839.5 L1808.1,1826.4 L1813.1,1813.3 L1818.1,1800.0    L1823.1,1786.6 L1828.1,1773.1 L1833.2,1759.5 L1838.3,1745.8 L1843.4,1732.0 L1848.5,1718.1 L1853.6,1704.1 L1858.8,1689.9    L1863.9,1675.7 L1869.1,1661.3 L1874.3,1646.8 L1879.6,1632.2 L1884.8,1617.5 L1890.1,1602.7 L1895.4,1587.8 L1900.7,1572.7    L1906.0,1557.6 L1911.4,1542.3 L1916.7,1526.9 L1922.1,1511.4 L1927.5,1495.8 L1933.0,1480.1 L1938.4,1464.2 L1943.9,1448.3    L1949.4,1432.2 L1954.9,1416.0 L1960.4,1399.7 L1966.0,1383.2 L1971.6,1366.7 L1977.2,1350.0 L1982.8,1333.2 L1988.4,1316.3    L1994.1,1299.2 L1999.7,1282.1 L2005.4,1264.8 L2011.2,1247.4 L2016.9,1229.8 L2022.6,1212.2 L2028.4,1194.4 L2034.2,1176.5    L2040.0,1158.5 L2045.9,1140.3 L2051.7,1122.1 L2057.6,1103.6 L2063.5,1085.1 L2069.4,1066.5 L2075.3,1047.7 L2081.3,1028.8    L2087.3,1009.7 L2093.3,990.6 L2099.3,971.3 L2105.3,951.9 L2111.4,932.3 L2117.5,912.6 L2123.6,892.8 L2129.7,872.9    L2135.8,852.8 L2142.0,832.6 L2148.1,812.2 L2154.3,791.8 L2160.6,771.2 L2166.8,750.4 L2173.1,729.5 L2179.3,708.5    L2185.6,687.4 L2191.9,666.1 L2198.3,644.7 L2204.6,623.1 L2211.0,601.5 L2217.4,579.6 L2223.8,557.7 L2230.3,535.6    L2236.7,513.3 L2243.2,491.0 L2249.7,468.4 L2256.2,445.8 L2262.8,423.0 L2269.3,400.0 L2275.9,377.0 L2282.5,353.8    L2289.1,330.4 L2295.8,306.9 L2302.4,283.2 L2309.1,259.5 L2315.8,235.5 L2322.5,211.4 L2329.3,187.2 L2334.6,167.9    "
       id="path158" />
  </g>
  <g
     style="fill:none; color:blue; stroke:currentColor; stroke-width:10.00; stroke-linecap:butt; stroke-linejoin:miter"
     id="g160">
    <g
       transform="translate(1132.6,752.9)"
       style="stroke:none; fill:black; font-family:Arial; font-size:120.00pt; text-anchor:end"
       id="g162">
      <text
         id="text164">a = 2</text>
    </g>
    <path
       d="M1216.5,707.9 L1642.1,707.9 M1913.6,5640.0 L1911.4,5627.2 L1906.0,5596.7 L1900.7,5566.4 L1895.4,5536.3 L1890.1,5506.4    L1884.8,5476.8 L1879.6,5447.4 L1874.3,5418.2 L1869.1,5389.3 L1863.9,5360.5 L1858.8,5332.0 L1853.6,5303.7 L1848.5,5275.7    L1843.4,5247.8 L1838.3,5220.2 L1833.2,5192.8 L1828.1,5165.6 L1823.1,5138.6 L1818.1,5111.8 L1813.1,5085.3 L1808.1,5059.0    L1803.2,5032.8 L1798.3,5006.9 L1793.4,4981.2 L1788.5,4955.7 L1783.6,4930.5 L1778.7,4905.4 L1773.9,4880.5 L1769.1,4855.9    L1764.3,4831.4 L1759.5,4807.2 L1754.8,4783.1 L1750.1,4759.3 L1745.4,4735.7 L1740.7,4712.2 L1736.0,4689.0 L1731.4,4666.0    L1726.7,4643.1 L1722.1,4620.5 L1717.5,4598.1 L1713.0,4575.8 L1708.4,4553.8 L1703.9,4531.9 L1699.4,4510.3 L1694.9,4488.8    L1690.4,4467.5 L1686.0,4446.4 L1681.6,4425.6 L1677.1,4404.9 L1672.8,4384.3 L1668.4,4364.0 L1664.0,4343.9 L1659.7,4323.9    L1655.4,4304.2 L1651.1,4284.6 L1646.9,4265.2 L1642.6,4246.0 L1638.4,4226.9 L1634.2,4208.1 L1630.0,4189.4 L1625.8,4170.9    L1621.7,4152.6 L1617.6,4134.4 L1613.5,4116.5 L1609.4,4098.7 L1605.3,4081.1 L1601.3,4063.6 L1597.2,4046.4 L1593.2,4029.3    L1589.3,4012.4 L1585.3,3995.6 L1581.3,3979.0 L1577.4,3962.6 L1573.5,3946.4 L1569.6,3930.3 L1565.8,3914.4 L1561.9,3898.6    L1558.1,3883.0 L1554.3,3867.6 L1550.5,3852.4 L1546.8,3837.3 L1543.0,3822.3 L1539.3,3807.6 L1535.6,3793.0 L1531.9,3778.5    L1528.2,3764.2 L1524.6,3750.1 L1521.0,3736.1 L1517.4,3722.2 L1513.8,3708.6 L1510.2,3695.1 L1506.7,3681.7 L1503.2,3668.5    L1499.7,3655.4 L1496.2,3642.5 L1492.7,3629.7 L1489.3,3617.1 L1485.9,3604.6 L1482.5,3592.3 L1479.1,3580.1 L1475.7,3568.1    L1472.4,3556.2 L1469.1,3544.4 L1465.8,3532.8 L1462.5,3521.3 L1459.2,3510.0 L1456.0,3498.8 L1452.8,3487.8 L1449.6,3476.9    L1446.4,3466.1 L1443.2,3455.4 L1440.1,3444.9 L1437.0,3434.6 L1433.9,3424.3 L1430.8,3414.2 L1427.7,3404.3 L1424.7,3394.4    L1421.7,3384.7 L1418.7,3375.1 L1415.7,3365.7 L1412.7,3356.3 L1409.8,3347.1 L1406.9,3338.1 L1404.0,3329.1 L1401.1,3320.3    L1398.3,3311.6 L1395.4,3303.0 L1392.6,3294.5 L1389.8,3286.2 L1387.0,3278.0 L1384.3,3269.9 L1381.5,3261.9 L1378.8,3254.0    L1376.1,3246.3 L1373.4,3238.6 L1370.8,3231.1 L1368.2,3223.7 L1365.5,3216.4 L1362.9,3209.2 L1360.4,3202.2 L1357.8,3195.2    L1355.3,3188.3 L1352.8,3181.6 L1350.3,3175.0 L1347.8,3168.4 L1345.3,3162.0 L1342.9,3155.7 L1340.5,3149.5 L1338.1,3143.4    L1335.7,3137.4 L1333.4,3131.4 L1331.0,3125.6 L1328.7,3119.9 L1326.4,3114.3 L1324.1,3108.8 L1321.9,3103.4 L1319.7,3098.1    L1317.4,3092.9 L1315.3,3087.7 L1313.1,3082.7 L1310.9,3077.7 L1308.8,3072.9 L1306.7,3068.1 L1304.6,3063.5 L1302.5,3058.9    L1300.5,3054.4 L1298.4,3050.0 L1296.4,3045.7 L1294.4,3041.5 L1292.5,3037.3 L1290.5,3033.2 L1288.6,3029.3 L1286.7,3025.4    L1284.8,3021.6 L1282.9,3017.8 L1281.0,3014.2 L1279.2,3010.6 L1277.4,3007.1 L1275.6,3003.7 L1273.8,3000.3 L1272.1,2997.1    L1270.4,2993.9 L1268.7,2990.8 L1267.0,2987.7 L1265.3,2984.7 L1263.6,2981.8 L1262.0,2979.0 L1260.4,2976.2 L1258.8,2973.5    L1257.2,2970.9 L1255.7,2968.4 L1254.2,2965.9 L1252.7,2963.4 L1251.2,2961.1 L1249.7,2958.8 L1248.2,2956.5 L1246.8,2954.4    L1245.4,2952.3 L1244.0,2950.2 L1242.7,2948.2 L1241.3,2946.3 L1240.0,2944.4 L1238.7,2942.6 L1237.4,2940.8 L1236.1,2939.1    L1234.9,2937.4 L1233.6,2935.8 L1232.4,2934.3 L1231.2,2932.8 L1230.1,2931.3 L1228.9,2929.9 L1227.8,2928.5 L1226.7,2927.2    L1225.6,2926.0 L1224.5,2924.8 L1223.5,2923.6 L1222.5,2922.5 L1221.5,2921.4 L1220.5,2920.4 L1219.5,2919.4 L1218.6,2918.4    L1217.6,2917.5 L1216.7,2916.6 L1215.9,2915.8 L1215.0,2915.0 L1214.1,2914.2 L1213.3,2913.5 L1212.5,2912.8 L1211.7,2912.2    L1211.0,2911.5 L1210.2,2910.9 L1209.5,2910.4 L1208.8,2909.9 L1208.1,2909.4 L1207.4,2908.9 L1206.8,2908.4 L1206.2,2908.0    L1205.6,2907.6 L1205.0,2907.3 L1204.4,2906.9 L1203.9,2906.6 L1203.4,2906.3 L1202.9,2906.1 L1202.4,2905.8 L1201.9,2905.6    L1201.5,2905.4 L1201.0,2905.2 L1200.6,2905.0 L1200.3,2904.9 L1199.9,2904.7 L1199.6,2904.6 L1199.2,2904.5 L1198.9,2904.4    L1198.6,2904.3 L1198.4,2904.2 L1198.1,2904.2 L1197.9,2904.1 L1197.7,2904.1 L1197.5,2904.0 L1197.4,2904.0 L1197.2,2904.0    L1197.1,2904.0 L1197.0,2904.0 L1196.9,2904.0 L1196.8,2904.0 L1196.8,2903.9 L1196.9,2903.9 L1197.0,2903.9 L1197.1,2903.9    L1197.2,2903.9 L1197.4,2903.9 L1197.5,2903.9 L1197.7,2903.8 L1197.9,2903.8 L1198.1,2903.7 L1198.4,2903.7 L1198.6,2903.6    L1198.9,2903.5 L1199.2,2903.4 L1199.6,2903.3 L1199.9,2903.2 L1200.3,2903.0 L1200.6,2902.9 L1201.0,2902.7 L1201.5,2902.5    L1201.9,2902.3 L1202.4,2902.1 L1202.9,2901.8 L1203.4,2901.6 L1203.9,2901.3 L1204.4,2901.0 L1205.0,2900.6 L1205.6,2900.3    L1206.2,2899.9 L1206.8,2899.5 L1207.4,2899.0 L1208.1,2898.5 L1208.8,2898.0 L1209.5,2897.5 L1210.2,2897.0 L1211.0,2896.4    L1211.7,2895.7 L1212.5,2895.1 L1213.3,2894.4 L1214.1,2893.7 L1215.0,2892.9 L1215.9,2892.1 L1216.7,2891.3 L1217.6,2890.4    L1218.6,2889.5 L1219.5,2888.5 L1220.5,2887.5 L1221.5,2886.5 L1222.5,2885.4 L1223.5,2884.3 L1224.5,2883.1 L1225.6,2881.9    L1226.7,2880.7 L1227.8,2879.4 L1228.9,2878.0 L1230.1,2876.6 L1231.2,2875.1 L1232.4,2873.6 L1233.6,2872.1 L1234.9,2870.5    L1236.1,2868.8 L1237.4,2867.1 L1238.7,2865.3 L1240.0,2863.5 L1241.3,2861.6 L1242.7,2859.7 L1244.0,2857.7 L1245.4,2855.6    L1246.8,2853.5 L1248.2,2851.4 L1249.7,2849.1 L1251.2,2846.8 L1252.7,2844.5 L1254.2,2842.0 L1255.7,2839.5 L1257.2,2837.0    L1258.8,2834.4 L1260.4,2831.7 L1262.0,2828.9 L1263.6,2826.1 L1265.3,2823.2 L1267.0,2820.2 L1268.7,2817.1 L1270.4,2814.0    L1272.1,2810.8 L1273.8,2807.6 L1275.6,2804.2 L1277.4,2800.8 L1279.2,2797.3 L1281.0,2793.7 L1282.9,2790.1 L1284.8,2786.3    L1286.7,2782.5 L1288.6,2778.6 L1290.5,2774.7 L1292.5,2770.6 L1294.4,2766.4 L1296.4,2762.2 L1298.4,2757.9 L1300.5,2753.5    L1302.5,2749.0 L1304.6,2744.4 L1306.7,2739.8 L1308.8,2735.0 L1310.9,2730.2 L1313.1,2725.2 L1315.3,2720.2 L1317.4,2715.0    L1319.7,2709.8 L1321.9,2704.5 L1324.1,2699.1 L1326.4,2693.6 L1328.7,2688.0 L1331.0,2682.3 L1333.4,2676.5 L1335.7,2670.5    L1338.1,2664.5 L1340.5,2658.4 L1342.9,2652.2 L1345.3,2645.9 L1347.8,2639.5 L1350.3,2632.9 L1352.8,2626.3 L1355.3,2619.6    L1357.8,2612.7 L1360.4,2605.7 L1362.9,2598.7 L1365.5,2591.5 L1368.2,2584.2 L1370.8,2576.8 L1373.4,2569.3 L1376.1,2561.6    L1378.8,2553.9 L1381.5,2546.0 L1384.3,2538.0 L1387.0,2529.9 L1389.8,2521.7 L1392.6,2513.4 L1395.4,2504.9 L1398.3,2496.3    L1401.1,2487.6 L1404.0,2478.8 L1406.9,2469.8 L1409.8,2460.8 L1412.7,2451.6 L1415.7,2442.2 L1418.7,2432.8 L1421.7,2423.2    L1424.7,2413.5 L1427.7,2403.6 L1430.8,2393.7 L1433.9,2383.6 L1437.0,2373.3 L1440.1,2363.0 L1443.2,2352.5 L1446.4,2341.8    L1449.6,2331.0 L1452.8,2320.1 L1456.0,2309.1 L1459.2,2297.9 L1462.5,2286.6 L1465.8,2275.1 L1469.1,2263.5 L1472.4,2251.7    L1475.7,2239.8 L1479.1,2227.8 L1482.5,2215.6 L1485.9,2203.3 L1489.3,2190.8 L1492.7,2178.2 L1496.2,2165.4 L1499.7,2152.5    L1503.2,2139.4 L1506.7,2126.2 L1510.2,2112.8 L1513.8,2099.3 L1517.4,2085.7 L1521.0,2071.8 L1524.6,2057.8 L1528.2,2043.7    L1531.9,2029.4 L1535.6,2014.9 L1539.3,2000.3 L1543.0,1985.6 L1546.8,1970.6 L1550.5,1955.5 L1554.3,1940.3 L1558.1,1924.9    L1561.9,1909.3 L1565.8,1893.5 L1569.6,1877.6 L1573.5,1861.5 L1577.4,1845.3 L1581.3,1828.9 L1585.3,1812.3 L1589.3,1795.5    L1593.2,1778.6 L1597.2,1761.5 L1601.3,1744.3 L1605.3,1726.8 L1609.4,1709.2 L1613.5,1691.4 L1617.6,1673.5 L1621.7,1655.3    L1625.8,1637.0 L1630.0,1618.5 L1634.2,1599.8 L1638.4,1581.0 L1642.6,1561.9 L1646.9,1542.7 L1651.1,1523.3 L1655.4,1503.7    L1659.7,1484.0 L1664.0,1464.0 L1668.4,1443.9 L1672.8,1423.6 L1677.1,1403.0 L1681.6,1382.3 L1686.0,1361.5 L1690.4,1340.4    L1694.9,1319.1 L1699.4,1297.6 L1703.9,1276.0 L1708.4,1254.1 L1713.0,1232.1 L1717.5,1209.8 L1722.1,1187.4 L1726.7,1164.8    L1731.4,1141.9 L1736.0,1118.9 L1740.7,1095.7 L1745.4,1072.2 L1750.1,1048.6 L1754.8,1024.8 L1759.5,1000.7 L1764.3,976.5    L1769.1,952.0 L1773.9,927.4 L1778.7,902.5 L1783.6,877.4 L1788.5,852.2 L1793.4,826.7 L1798.3,801.0 L1803.2,775.1    L1808.1,748.9 L1813.1,722.6 L1818.1,696.1 L1823.1,669.3 L1828.1,642.3 L1833.2,615.1 L1838.3,587.7 L1843.4,560.1    L1848.5,532.2 L1853.6,504.2 L1858.8,475.9 L1863.9,447.4 L1869.1,418.6 L1874.3,389.7 L1879.6,360.5 L1884.8,331.1    L1890.1,301.5 L1895.4,271.6 L1900.7,241.5 L1906.0,211.2 L1911.4,180.7 L1913.6,167.9 "
       id="path166" />
  </g>
  <g
     style="fill:none; color:white; stroke:currentColor; stroke-width:1.00; stroke-linecap:butt; stroke-linejoin:miter"
     id="g168" />
  <g
     style="fill:none;color:black;stroke:currentColor;stroke-width:10;stroke-linecap:butt;stroke-linejoin:miter;stroke-miterlimit:4;stroke-dasharray:none"
     id="g170">
    <path
       d="M461.4,167.9 L461.4,5640.0 L3648.2,5640.0 L3648.2,167.9 L461.4,167.9 Z "
       id="path172"
       style="stroke-width:10;stroke-miterlimit:4;stroke-dasharray:none" />
  </g>
</svg>
