<?xml version="1.0" encoding="UTF-8" standalone="no"?>
<!DOCTYPE svg PUBLIC "-//W3C//DTD SVG 1.1//EN" "http://www.w3.org/Graphics/SVG/1.1/DTD/svg11.dtd">
<!--This file is made available under the Creative Commons CC0 1.0 Universal Public Domain Dedication. Author: Krishnavedala.-->
<svg xmlns="http://www.w3.org/2000/svg" xmlns:xlink="http://www.w3.org/1999/xlink" version="1.1" width="440px" height="520px" viewBox="-7 -65 110 130">
<defs>
	<pattern id="grid" width="10" height="10" patternUnits="userSpaceOnUse">
		<path d="M0,0h10v10" fill="none" stroke="#777" stroke-width=".5"/>
	</pattern>
</defs>
<title>Square root function: y=√x</title>
<rect x="-0" y="-65" width="100%" height="100%" fill="url(#grid)"/>
<g fill="none">
	<path d="M0,-65V65 M-105,0H105" stroke="black"/>
	<path id="p1" d="M0,-0 L0.01,-0.6325 Q 0.01292,-0.7237 0.01585,-0.7962 0.02048,-0.9111 0.02512,-1.002 0.03246,-1.147 0.03981,-1.262 0.05145,-1.444 0.0631,-1.589 0.08155,-1.818 0.1,-2 0.1292,-2.289 0.1585,-2.518 0.2048,-2.881 0.2512,-3.17 0.3246,-3.627 0.3981,-3.991 0.5145,-4.566 0.631,-5.024 0.8155,-5.748 1,-6.325 1.292,-7.237 1.585,-7.962 2.048,-9.111 2.512,-10.02 3.246,-11.47 3.981,-12.62 5.145,-14.44 6.31,-15.89 8.155,-18.18 10,-20 12.92,-22.89 15.85,-25.18 20.48,-28.81 25.12,-31.7 32.46,-36.27 39.81,-39.91 51.45,-45.66 63.1,-50.24 81.55,-57.48 100,-63.25" stroke="red" stroke-width=".7"/>
	<use xlink:href="#p1" transform="scale(1,-1)"/>
</g>
<g stroke="none" fill="black" font-family="serif" text-anchor="middle" font-size="4">
	<text y="5">
		<tspan x="-2">0</tspan><tspan x="20">2</tspan><tspan x="40">4</tspan><tspan x="60">6</tspan><tspan x="80">8</tspan><tspan x="100">10</tspan>
		<tspan x="-20">−2</tspan><tspan x="-40">−4</tspan><tspan x="-60">−6</tspan><tspan x="-80">−8</tspan><tspan x="-100">−10</tspan>
	</text>
	<text x="-3" y="-19">1</text><text x="-3" y="-39">2</text><text x="-3" y="-59">3</text>
	<text x="-4" y="21">−1</text><text x="-4" y="41">−2</text><text x="-4" y="61">−3</text>
</g>
</svg>
